Coordinates

Units are S.I. units (second, meters, Newtons, ...)
If the header above contains a line with 'inDegrees', this indicates whether rotational values are in degrees (yes) or radians (no).

inDegrees=no
nColumns=21
nRows=17
DataType=double
version=3
OpenSimVersion=4.6-2026-03-31-d6972f9e6
endheader
time	/jointset/ground_pelvis/pelvis_tilt/value	/jointset/ground_pelvis/pelvis_list/value	/jointset/ground_pelvis/pelvis_rotation/value	/jointset/ground_pelvis/pelvis_tx/value	/jointset/ground_pelvis/pelvis_ty/value	/jointset/ground_pelvis/pelvis_tz/value	/jointset/hip_r/hip_flexion_r/value	/jointset/hip_r/hip_adduction_r/value	/jointset/hip_r/hip_rotation_r/value	/jointset/walker_knee_r/knee_angle_r/value	/jointset/patellofemoral_r/knee_angle_r_beta/value	/jointset/ankle_r/ankle_angle_r/value	/jointset/subtalar_r/subtalar_angle_r/value	/jointset/hip_l/hip_flexion_l/value	/jointset/hip_l/hip_adduction_l/value	/jointset/hip_l/hip_rotation_l/value	/jointset/walker_knee_l/knee_angle_l/value	/jointset/patellofemoral_l/knee_angle_l_beta/value	/jointset/ankle_l/ankle_angle_l/value	/jointset/subtalar_l/subtalar_angle_l/value
147.496	-0.138778091424852	0.06321858546245257	0.1334467196370496	1.159383924500982	0.9390280088851215	-0.3302738669069389	-0.2704390484599867	-0.05941216452029273	-0.2693787565552963	0.2694199133577742	0.2694199129266789	-0.5304185100514739	-0.2408653425513591	0.4656852272196539	0.1092888337145351	0.1093984186115393	0.1216924167684021	0.1216924152914825	0.03121973050619316	-0.04242654329554984
147.5	-0.1389071917676349	0.06034577040273406	0.1334213410044824	1.159946879707419	0.9390096992023463	-0.3310361920603977	-0.2683956189204851	-0.05985696715445343	-0.2656001974338226	0.2890247272056884	0.2890247268318515	-0.5446563353924949	-0.2520954451139233	0.4631157749746153	0.1085020204855421	0.1066114182629349	0.1056002305151824	0.1056002291497198	0.03515354443301506	-0.03510776198562854
147.504	-0.1386818006282953	0.05747394092058034	0.1332209736942295	1.1604288034944	0.9388658523634059	-0.3317907374445564	-0.2655637609722294	-0.06046393930789165	-0.2611903503665569	0.3108059858232994	0.3108059855125098	-0.5576538739386458	-0.2649603058797786	0.4606078713830314	0.1076563135106346	0.1035773530064731	0.09258479988453373	0.09258479862805756	0.03854912531201082	-0.03078451302331748
147.508	-0.1380399804234387	0.05469765975511309	0.1328680937260261	1.160830114647407	0.9386024296581694	-0.3325377779397894	-0.2620809377219772	-0.06131281516945224	-0.2562713621050469	0.3346304344984966	0.3346304342480578	-0.5694299119670126	-0.2792224135670502	0.4580670670775257	0.1068442173908642	0.1003434238995572	0.08260129331502845	0.08260129215833689	0.04140631770441236	-0.0293446169343531
147.512	-0.1369203757084584	0.05210212118556954	0.1323872522954144	1.161151873326196	0.9382249174031162	-0.3332778196574437	-0.2580895068878215	-0.06247320291008634	-0.2509752062128161	0.3603467343180971	0.3603467341173727	-0.5800072402499917	-0.2946278966383238	0.4554022784625687	0.1061465868966907	0.09695796869352338	0.07559469722641447	0.07559469615521433	0.04373196881142177	-0.03061912628654201
147.516	-0.1352649168136506	0.04976241935059501	0.1318052765619889	1.161395576674128	0.9377381065636922	-0.3340116009099343	-0.2537317385999966	-0.06400486921525381	-0.2454405187690088	0.3877900516207421	0.3877900514522114	-0.5894107688563339	-0.310914474020832	0.4525305902182502	0.1056328968604746	0.0934690605536914	0.0715033097163285	0.07150330871323499	0.04554108559350827	-0.03439290618834312
147.52	-0.1330218553463458	0.04774329972584341	0.1311513207143745	1.161562944028554	0.9371458804815261	-0.3347400691135111	-0.2491443493448436	-0.0659585444678757	-0.2398090593921213	0.4167871865542699	0.4167871863949637	-0.5976657389679226	-0.3278193971456811	0.4493819285852592	0.1053620544110958	0.08992345027453488	0.07026156991114377	0.07026156895770244	0.04685787959786952	-0.04041648450800184
147.524	-0.1301489384355305	0.04609933339422743	0.1304567538097678	1.161655708408735	0.9364510247065132	-0.3354643330314386	-0.244452872911215	-0.0683771069618215	-0.2342219106697066	0.4471619137200483	0.4471619135432978	-0.6047961397348866	-0.3450869328232503	0.445903318482023	0.1053836199120139	0.08636584684613621	0.07180209245217399	0.07180209153080874	0.0477166254530663	-0.04841846449984842
147.528	-0.1266164937584144	0.04487539044980856	0.1297549150500844	1.161675429808499	0.9356550757508899	-0.3361855958974543	-0.239766235289187	-0.07129693408698455	-0.2288155857400265	0.4787401642750465	0.4787401640525379	-0.6108234019754168	-0.3624748449949564	0.4420624471662928	0.1057392628339741	0.08283858388352458	0.07605685914796528	0.07605685824391921	0.04816227795385998	-0.05811784087552813
147.532	-0.1224102532978774	0.04410728584275256	0.1290807483613892	1.161623342422593	0.9347582213225324	-0.3369050738005664	-0.2351718055753592	-0.07474922440154529	-0.2237181547433923	0.5113547382849525	0.5113547379891066	-0.615765457762425	-0.3797595629523456	0.4378503485056632	0.1064642780162537	0.07938167590872873	0.08295756262980204	0.0829575617329896	0.04825074618937826	-0.06923564294293426
147.536	-0.1175337623289183	0.04382252052818725	0.1284703054099199	1.161500246550837	0.93375926317127	-0.3376239017528442	-0.2307311518332962	-0.07876116927691318	-0.219045480592295	0.5448493024797363	0.5448493020862849	-0.6196362465163675	-0.3967399214746642	0.4332830573551682	0.1075890319653407	0.07603316102610257	0.0924351220257401	0.0924351211321006	0.04804872559342654	-0.08150534800491886
147.54	-0.1120101916632745	0.04404109121241816	0.1279601088001341	1.161306455489793	0.9326556554804489	-0.3383430300296467	-0.2264767592578275	-0.08335691898572982	-0.2148976885675949	0.5790814692394631	0.579081468729834	-0.6224456935533025	-0.4132394349076887	0.4284020687845148	0.1091402596820577	0.07282953738593009	0.1044184240749592	0.1044184231868392	0.04763305962315819	-0.09468150194109803
147.544	-0.1058833804662049	0.04477634413178467	0.1275863825967192	1.16104180453749	0.9314436299596317	-0.3390631146827807	-0.2224099462343068	-0.08855829853950553	-0.2113559984761789	0.613924799757905	0.6139247991209235	-0.6242001431879892	-0.4291071520509998	0.4232734765743712	0.1111421473529475	0.06980610088201152	0.118832388734633	0.1188323878600495	0.04708966642890272	-0.1085460879095133
147.548	-0.09921800799406942	0.04603581607975887	0.1273841721230863	1.160705723166936	0.930118411784585	-0.3397844080518195	-0.218500105763813	-0.0943852088855132	-0.2084800146671399	0.6492696480276268	0.6492696472602713	-0.6249032205381874	-0.4442172529319501	0.4179857793495356	0.1136171271899047	0.06699706169247159	0.1355955025059893	0.1355955016569987	0.04651207080581233	-0.1229124161049685
147.552	-0.09209890544014923	0.04782198934343181	0.1273863774635438	1.160297364312233	0.9286745200624542	-0.3405066567638204	-0.2146852328558042	-0.1008556620710797	-0.2063055382982867	0.6850228702936718	0.6850228694009521	-0.6245570952372701	-0.4584676454167816	0.4126464977892856	0.1165863182207784	0.06443537549535461	0.1546169960071752	0.1546169951977321	0.04599952688068114	-0.1376265766134191
147.556	-0.08462960998396538	0.05013290178192909	0.1276227186231799	1.159815778791592	0.9271061375559104	-0.3412290152449324	-0.2108735641276755	-0.1079854458832528	-0.2048429519550765	0.7211065297863305	0.7211065287804523	-0.6231641026776457	-0.4717778722859983	0.4073778657101333	0.1200695765307521	0.06215225777989975	0.1757938633742054	0.1757938626178953	0.04565467883838821	-0.1525667130382246
147.56	-0.07693023676726021	0.0529625807229605	0.1281186569201521	1.159260120953656	0.9254075342349811	-0.3419499821367422	-0.2069461910753235	-0.1157874400740035	-0.2040762267393596	0.757455756073706	0.7574557549726624	-0.6207286384547126	-0.4840866273144405	0.4023118295291968	0.1240851476706723	0.06017640092003344	0.1990079236870227	0.1990079229949869	0.04558079624757622	-0.1676404622654765
